#define icon_width 128
#define icon_height 40
static unsigned char icon_bits[] = {
   0x00, 0x00, 0x00, 0x00, 0x00, 0x00, 0x00, 0x00, 0xc0, 0xff, 0x00, 0x00,
   0x00, 0x00, 0x00, 0x00, 0x00, 0x00, 0x00, 0x00, 0x00, 0x00, 0x00, 0x00,
   0xff, 0xff, 0x7f, 0x00, 0x00, 0x00, 0x00, 0x00, 0x00, 0x00, 0x00, 0x00,
   0x00, 0x00, 0x00, 0xf0, 0xfe, 0xff, 0xc0, 0x0f, 0x00, 0x00, 0x00, 0x00,
   0x00, 0x00, 0x00, 0x00, 0x00, 0x00, 0x00, 0xde, 0x03, 0xc0, 0x3f, 0xf8,
   0x00, 0x00, 0x00, 0x00, 0x00, 0x00, 0x00, 0x00, 0x00, 0x00, 0x80, 0x33,
   0x00, 0x00, 0xe0, 0x81, 0x07, 0x00, 0x00, 0x00, 0x00, 0x00, 0x00, 0x00,
   0x00, 0x00, 0xe0, 0x0c, 0x00, 0x00, 0x00, 0x1e, 0x3c, 0x00, 0x00, 0x00,
   0x00, 0x00, 0x00, 0x00, 0x00, 0x00, 0x38, 0x03, 0x00, 0x00, 0x00, 0x70,
   0xe0, 0x01, 0x00, 0x00, 0x00, 0x00, 0x00, 0x00, 0x00, 0x00, 0xce, 0x00,
   0x00, 0x00, 0x00, 0x80, 0x01, 0x1f, 0x00, 0x00, 0x00, 0x00, 0x00, 0x00,
   0x00, 0x80, 0x63, 0x00, 0x00, 0x00, 0x00, 0x80, 0x00, 0xf0, 0x00, 0x00,
   0x00, 0x00, 0x00, 0x00, 0x00, 0xe0, 0x18, 0x00, 0x00, 0x00, 0x00, 0x60,
   0x00, 0x80, 0x9f, 0x1f, 0x00, 0x00, 0x00, 0x00, 0x00, 0x30, 0x0e, 0x00,
   0x00, 0x00, 0x00, 0x38, 0x00, 0x00, 0xf0, 0x10, 0x00, 0x00, 0x00, 0x00,
   0x00, 0x0c, 0x03, 0x00, 0x00, 0x00, 0x00, 0x0f, 0x00, 0x00, 0x00, 0x18,
   0x00, 0x00, 0x00, 0x00, 0xfc, 0x87, 0x01, 0x00, 0xf8, 0xff, 0xff, 0x00,
   0xf0, 0x1f, 0x00, 0x08, 0x00, 0x00, 0xc0, 0xff, 0xff, 0xff, 0xff, 0xff,
   0xff, 0x81, 0xff, 0x1f, 0x1f, 0xf0, 0xdf, 0x0b, 0x00, 0x00, 0x7c, 0x80,
   0xff, 0x01, 0x00, 0x00, 0xfc, 0xff, 0x01, 0xf0, 0x01, 0x00, 0x5e, 0x08,
   0x00, 0x80, 0x03, 0x80, 0xff, 0x01, 0xfe, 0xff, 0x03, 0x00, 0x00, 0x00,
   0x00, 0x00, 0x80, 0x08, 0x00, 0xf0, 0x00, 0x00, 0xff, 0xff, 0x1f, 0x00,
   0x00, 0x00, 0x00, 0x00, 0x00, 0x00, 0x80, 0x19, 0x00, 0x3e, 0x00, 0x00,
   0x00, 0x00, 0x00, 0x00, 0x00, 0x00, 0x00, 0x00, 0x00, 0x00, 0x00, 0x1b,
   0x00, 0x3f, 0x00, 0x00, 0x00, 0x00, 0x00, 0x00, 0x00, 0x00, 0x10, 0x00,
   0x00, 0x00, 0x00, 0x36, 0xc0, 0x1b, 0xf0, 0x07, 0x00, 0x00, 0x00, 0x00,
   0x00, 0x00, 0x10, 0x00, 0xe0, 0x3f, 0x00, 0x20, 0xf0, 0x0c, 0xfe, 0x3f,
   0x00, 0x00, 0x00, 0x00, 0x00, 0x00, 0x10, 0x00, 0xf8, 0xff, 0x00, 0x40,
   0x38, 0x04, 0x1b, 0x7c, 0x00, 0x00, 0x00, 0x00, 0x00, 0x00, 0x08, 0x00,
   0xbc, 0x4f, 0x03, 0x40, 0xfc, 0x83, 0xf7, 0xff, 0x00, 0x00, 0x00, 0x00,
   0x00, 0x00, 0x08, 0x00, 0xfa, 0xf0, 0x07, 0xc0, 0x84, 0xc1, 0x0f, 0xd8,
   0x01, 0x00, 0x00, 0x00, 0x00, 0x00, 0x0c, 0x00, 0x3d, 0xc0, 0x0f, 0x80,
   0x0c, 0xe0, 0x07, 0xa0, 0x01, 0x00, 0x00, 0x00, 0x00, 0x00, 0x04, 0x80,
   0x0f, 0x80, 0x0a, 0xc0, 0x0c, 0xa0, 0x02, 0xe0, 0x02, 0x00, 0x00, 0x00,
   0x00, 0x00, 0x04, 0x80, 0x0e, 0x00, 0x15, 0xc0, 0x0c, 0xf0, 0x01, 0x40,
   0x03, 0x00, 0x00, 0x00, 0x00, 0x00, 0x02, 0xc0, 0x07, 0x00, 0x16, 0x40,
   0xf8, 0x50, 0x01, 0x80, 0x05, 0x00, 0x00, 0x00, 0x00, 0x00, 0x02, 0x40,
   0x05, 0x00, 0x16, 0x48, 0x88, 0xd1, 0x00, 0x80, 0x05, 0x00, 0x00, 0x00,
   0x00, 0x00, 0x01, 0x40, 0x05, 0x06, 0x16, 0x48, 0xe8, 0xd1, 0xc0, 0x81,
   0x05, 0x00, 0x00, 0x00, 0x00, 0xc0, 0x00, 0x40, 0x03, 0x07, 0x3a, 0x68,
   0xa8, 0xd9, 0xc0, 0x81, 0x05, 0x00, 0x00, 0x00, 0x00, 0x78, 0x00, 0x40,
   0x07, 0x06, 0x3e, 0x2c, 0xa4, 0xc9, 0x00, 0x80, 0x01, 0x00, 0x00, 0xfe,
   0xff, 0x0f, 0x00, 0x00, 0x05, 0x00, 0x16, 0x37, 0xe2, 0x58, 0x01, 0x80,
   0xf1, 0xff, 0xff, 0x1f, 0x00, 0x00, 0x00, 0x00, 0x05, 0x00, 0x96, 0x19,
   0x02, 0xd0, 0x01, 0x40, 0x01, 0x00, 0x00, 0x00, 0x00, 0x00, 0x00, 0x00,
   0x0e, 0x00, 0x15, 0x0f, 0x1e, 0x80, 0x02, 0xc0, 0x00, 0x00, 0x00, 0x00,
   0x00, 0x00, 0xc0, 0x7f, 0x0a, 0x80, 0xd3, 0x01, 0xe0, 0x1f, 0x07, 0xa0,
   0xf8, 0xff, 0xff, 0xff, 0xff, 0xff, 0x1f, 0x00, 0x14, 0xc0, 0x23, 0x00,
   0x00, 0x00, 0x0f, 0x58, 0x38, 0x00, 0x00, 0x00, 0x00, 0x00, 0x00, 0x00,
   0x68, 0xf0, 0x01, 0x00, 0x00, 0x00, 0xf6, 0x3f, 0x00, 0x00, 0x00, 0x00,
   0x00, 0x00, 0x00, 0x00, 0xb0, 0xdf, 0x00, 0x00, 0x00, 0x00, 0x18, 0x18,
   0x00, 0x00, 0x00, 0x00, 0x00, 0x00, 0x00, 0x00, 0xc0, 0x39, 0x00, 0x00,
   0x00, 0x00, 0xf0, 0x07, 0x00, 0x00, 0x00, 0x00, 0x00, 0x00, 0x00, 0x00,
   0x00, 0x0f, 0x00, 0x00
};